<mxfile host="app.diagrams.net" modified="2022-02-11T10:39:00.966Z" agent="5.0 (Windows NT 10.0; Win64; x64) AppleWebKit/537.36 (KHTML, like Gecko) Chrome/98.0.4758.87 Safari/537.36" etag="gDowClTFGP00rtBa73Dx" version="16.5.6" type="github">
  <diagram id="yPmaNoRn79zhwf_WiiIh" name="Page-1">
    <mxGraphModel dx="2858" dy="1063" grid="0" gridSize="10" guides="1" tooltips="1" connect="1" arrows="1" fold="1" page="1" pageScale="1" pageWidth="827" pageHeight="1169" math="0" shadow="0">
      <root>
        <mxCell id="0" />
        <mxCell id="1" parent="0" />
        <mxCell id="PqdqEKUbh5YwWDGjOYME-11" value="&lt;font style=&quot;font-size: 14px&quot;&gt;&lt;font style=&quot;font-size: 14px;&quot;&gt;KRECHET_CAN&lt;br style=&quot;font-size: 14px;&quot;&gt;&lt;/font&gt;&lt;font style=&quot;font-size: 14px;&quot;&gt;FPGA &lt;font style=&quot;font-size: 14px;&quot;&gt;CYCLONE &lt;/font&gt;V&lt;/font&gt;&lt;/font&gt;" style="whiteSpace=wrap;html=1;fontStyle=0;fontSize=14;rounded=1;" parent="1" vertex="1">
          <mxGeometry x="-710" y="273" width="400" height="417" as="geometry" />
        </mxCell>
        <mxCell id="PqdqEKUbh5YwWDGjOYME-12" value="GND" style="whiteSpace=wrap;html=1;fontStyle=0;fontSize=14;rounded=1;" parent="1" vertex="1">
          <mxGeometry x="-310" y="439" width="40" height="20" as="geometry" />
        </mxCell>
        <mxCell id="PqdqEKUbh5YwWDGjOYME-13" value="5V" style="whiteSpace=wrap;html=1;fontStyle=0;fontSize=14;rounded=1;" parent="1" vertex="1">
          <mxGeometry x="-310" y="619" width="40" height="20" as="geometry" />
        </mxCell>
        <mxCell id="PqdqEKUbh5YwWDGjOYME-15" value="TX" style="whiteSpace=wrap;html=1;fontStyle=0;fontSize=14;rounded=1;" parent="1" vertex="1">
          <mxGeometry x="-310" y="499" width="40" height="20" as="geometry" />
        </mxCell>
        <mxCell id="PqdqEKUbh5YwWDGjOYME-16" value="RX" style="whiteSpace=wrap;html=1;fontStyle=0;fontSize=14;rounded=1;" parent="1" vertex="1">
          <mxGeometry x="-310" y="559" width="40" height="20" as="geometry" />
        </mxCell>
        <mxCell id="PqdqEKUbh5YwWDGjOYME-17" value="&lt;span style=&quot;font-size: 14px;&quot;&gt;TJA1050&lt;/span&gt;" style="whiteSpace=wrap;html=1;gradientDirection=east;fontStyle=0;fontSize=14;rounded=1;" parent="1" vertex="1">
          <mxGeometry x="-150" y="419" width="140" height="240" as="geometry" />
        </mxCell>
        <mxCell id="PqdqEKUbh5YwWDGjOYME-18" value="VCC" style="whiteSpace=wrap;html=1;fontStyle=0;fontSize=14;rounded=1;" parent="1" vertex="1">
          <mxGeometry x="-190" y="619" width="40" height="20" as="geometry" />
        </mxCell>
        <mxCell id="PqdqEKUbh5YwWDGjOYME-19" value="RX" style="whiteSpace=wrap;html=1;fontStyle=0;fontSize=14;rounded=1;" parent="1" vertex="1">
          <mxGeometry x="-190" y="559" width="40" height="20" as="geometry" />
        </mxCell>
        <mxCell id="PqdqEKUbh5YwWDGjOYME-20" value="TX" style="whiteSpace=wrap;html=1;fontStyle=0;fontSize=14;rounded=1;" parent="1" vertex="1">
          <mxGeometry x="-190" y="499" width="40" height="20" as="geometry" />
        </mxCell>
        <mxCell id="PqdqEKUbh5YwWDGjOYME-21" value="GND" style="whiteSpace=wrap;html=1;fontStyle=0;fontSize=14;rounded=1;" parent="1" vertex="1">
          <mxGeometry x="-190" y="439" width="40" height="20" as="geometry" />
        </mxCell>
        <mxCell id="PqdqEKUbh5YwWDGjOYME-25" value="" style="endArrow=none;html=1;exitX=1;exitY=0.5;exitDx=0;exitDy=0;entryX=0;entryY=0.5;entryDx=0;entryDy=0;fontStyle=0;fontSize=14;" parent="1" source="PqdqEKUbh5YwWDGjOYME-12" target="PqdqEKUbh5YwWDGjOYME-21" edge="1">
          <mxGeometry width="50" height="50" relative="1" as="geometry">
            <mxPoint x="-190" y="519" as="sourcePoint" />
            <mxPoint x="-140" y="469" as="targetPoint" />
          </mxGeometry>
        </mxCell>
        <mxCell id="PqdqEKUbh5YwWDGjOYME-26" value="" style="endArrow=none;html=1;exitX=1;exitY=0.5;exitDx=0;exitDy=0;entryX=0;entryY=0.5;entryDx=0;entryDy=0;fontStyle=0;fontSize=14;" parent="1" source="PqdqEKUbh5YwWDGjOYME-15" target="PqdqEKUbh5YwWDGjOYME-20" edge="1">
          <mxGeometry width="50" height="50" relative="1" as="geometry">
            <mxPoint x="-190" y="519" as="sourcePoint" />
            <mxPoint x="-200" y="469" as="targetPoint" />
          </mxGeometry>
        </mxCell>
        <mxCell id="PqdqEKUbh5YwWDGjOYME-27" value="" style="endArrow=none;html=1;exitX=1;exitY=0.5;exitDx=0;exitDy=0;entryX=0;entryY=0.5;entryDx=0;entryDy=0;fontStyle=0;fontSize=14;" parent="1" source="PqdqEKUbh5YwWDGjOYME-16" target="PqdqEKUbh5YwWDGjOYME-19" edge="1">
          <mxGeometry width="50" height="50" relative="1" as="geometry">
            <mxPoint x="-190" y="519" as="sourcePoint" />
            <mxPoint x="-140" y="469" as="targetPoint" />
          </mxGeometry>
        </mxCell>
        <mxCell id="PqdqEKUbh5YwWDGjOYME-28" value="" style="endArrow=none;html=1;exitX=1;exitY=0.5;exitDx=0;exitDy=0;entryX=0;entryY=0.5;entryDx=0;entryDy=0;fontStyle=0;fontSize=14;" parent="1" source="PqdqEKUbh5YwWDGjOYME-13" target="PqdqEKUbh5YwWDGjOYME-18" edge="1">
          <mxGeometry width="50" height="50" relative="1" as="geometry">
            <mxPoint x="-190" y="519" as="sourcePoint" />
            <mxPoint x="-140" y="469" as="targetPoint" />
          </mxGeometry>
        </mxCell>
        <mxCell id="PqdqEKUbh5YwWDGjOYME-30" value="CAN_H" style="whiteSpace=wrap;html=1;fontStyle=0;fontSize=14;rounded=1;" parent="1" vertex="1">
          <mxGeometry x="-10" y="459" width="50" height="20" as="geometry" />
        </mxCell>
        <mxCell id="PqdqEKUbh5YwWDGjOYME-31" value="CAN_L" style="whiteSpace=wrap;html=1;fontStyle=0;fontSize=14;rounded=1;" parent="1" vertex="1">
          <mxGeometry x="-10" y="599" width="50" height="20" as="geometry" />
        </mxCell>
        <mxCell id="PqdqEKUbh5YwWDGjOYME-34" value="12V" style="whiteSpace=wrap;html=1;fontStyle=0;fontSize=14;rounded=1;" parent="1" vertex="1">
          <mxGeometry x="-310" y="319" width="40" height="20" as="geometry" />
        </mxCell>
        <mxCell id="PqdqEKUbh5YwWDGjOYME-35" value="GND" style="whiteSpace=wrap;html=1;fontStyle=0;fontSize=14;rounded=1;" parent="1" vertex="1">
          <mxGeometry x="-310" y="379" width="40" height="20" as="geometry" />
        </mxCell>
        <mxCell id="PqdqEKUbh5YwWDGjOYME-40" value="&lt;span style=&quot;font-size: 14px;&quot;&gt;ARDUINO UNO&lt;/span&gt;" style="whiteSpace=wrap;html=1;fontStyle=0;fontSize=14;rounded=1;" parent="1" vertex="1">
          <mxGeometry x="220" y="99" width="460" height="220" as="geometry" />
        </mxCell>
        <mxCell id="PqdqEKUbh5YwWDGjOYME-42" value="&lt;span style=&quot;font-size: 14px;&quot;&gt;MCP2515&lt;/span&gt;" style="whiteSpace=wrap;html=1;fontStyle=0;fontSize=14;rounded=1;" parent="1" vertex="1">
          <mxGeometry x="220" y="419" width="470" height="240" as="geometry" />
        </mxCell>
        <mxCell id="PqdqEKUbh5YwWDGjOYME-44" value="CAN_H" style="whiteSpace=wrap;html=1;fontStyle=0;fontSize=14;rounded=1;" parent="1" vertex="1">
          <mxGeometry x="170" y="459" width="50" height="20" as="geometry" />
        </mxCell>
        <mxCell id="PqdqEKUbh5YwWDGjOYME-45" value="CAN_L" style="whiteSpace=wrap;html=1;fontStyle=0;fontSize=14;rounded=1;" parent="1" vertex="1">
          <mxGeometry x="170" y="599" width="50" height="20" as="geometry" />
        </mxCell>
        <mxCell id="PqdqEKUbh5YwWDGjOYME-54" value="" style="endArrow=none;html=1;entryX=0;entryY=0.5;entryDx=0;entryDy=0;exitX=1;exitY=0.5;exitDx=0;exitDy=0;fontStyle=0;fontSize=14;" parent="1" source="PqdqEKUbh5YwWDGjOYME-30" target="PqdqEKUbh5YwWDGjOYME-44" edge="1">
          <mxGeometry width="50" height="50" relative="1" as="geometry">
            <mxPoint x="-40" y="409" as="sourcePoint" />
            <mxPoint x="10" y="359" as="targetPoint" />
          </mxGeometry>
        </mxCell>
        <mxCell id="PqdqEKUbh5YwWDGjOYME-56" value="" style="endArrow=none;html=1;entryX=0;entryY=0.5;entryDx=0;entryDy=0;exitX=1;exitY=0.5;exitDx=0;exitDy=0;fontStyle=0;fontSize=14;" parent="1" source="PqdqEKUbh5YwWDGjOYME-31" target="PqdqEKUbh5YwWDGjOYME-45" edge="1">
          <mxGeometry width="50" height="50" relative="1" as="geometry">
            <mxPoint x="40" y="659" as="sourcePoint" />
            <mxPoint x="90" y="609" as="targetPoint" />
          </mxGeometry>
        </mxCell>
        <mxCell id="PqdqEKUbh5YwWDGjOYME-83" value="&lt;span style=&quot;font-size: 14px;&quot;&gt;KRECHET_CAN&lt;br style=&quot;font-size: 14px;&quot;&gt;FPGA CYCLONE V&lt;/span&gt;" style="whiteSpace=wrap;html=1;fontStyle=0;fontSize=14;rounded=1;" parent="1" vertex="1">
          <mxGeometry x="-710" y="707" width="400" height="381" as="geometry" />
        </mxCell>
        <mxCell id="PqdqEKUbh5YwWDGjOYME-84" value="GND" style="whiteSpace=wrap;html=1;fontStyle=0;fontSize=14;rounded=1;" parent="1" vertex="1">
          <mxGeometry x="-310" y="789" width="40" height="20" as="geometry" />
        </mxCell>
        <mxCell id="PqdqEKUbh5YwWDGjOYME-85" value="5V" style="whiteSpace=wrap;html=1;fontStyle=0;fontSize=14;rounded=1;" parent="1" vertex="1">
          <mxGeometry x="-310" y="969" width="40" height="20" as="geometry" />
        </mxCell>
        <mxCell id="PqdqEKUbh5YwWDGjOYME-86" value="TX" style="whiteSpace=wrap;html=1;fontStyle=0;fontSize=14;rounded=1;" parent="1" vertex="1">
          <mxGeometry x="-310" y="849" width="40" height="20" as="geometry" />
        </mxCell>
        <mxCell id="PqdqEKUbh5YwWDGjOYME-87" value="RX" style="whiteSpace=wrap;html=1;fontStyle=0;fontSize=14;rounded=1;" parent="1" vertex="1">
          <mxGeometry x="-310" y="909" width="40" height="20" as="geometry" />
        </mxCell>
        <mxCell id="PqdqEKUbh5YwWDGjOYME-88" value="&lt;span style=&quot;font-size: 14px;&quot;&gt;TJA1050&lt;/span&gt;" style="whiteSpace=wrap;html=1;fontStyle=0;fontSize=14;rounded=1;" parent="1" vertex="1">
          <mxGeometry x="-150" y="769" width="140" height="240" as="geometry" />
        </mxCell>
        <mxCell id="PqdqEKUbh5YwWDGjOYME-89" value="VCC" style="whiteSpace=wrap;html=1;fontStyle=0;fontSize=14;rounded=1;" parent="1" vertex="1">
          <mxGeometry x="-190" y="969" width="40" height="20" as="geometry" />
        </mxCell>
        <mxCell id="PqdqEKUbh5YwWDGjOYME-90" value="RX" style="whiteSpace=wrap;html=1;fontStyle=0;fontSize=14;rounded=1;" parent="1" vertex="1">
          <mxGeometry x="-190" y="909" width="40" height="20" as="geometry" />
        </mxCell>
        <mxCell id="PqdqEKUbh5YwWDGjOYME-91" value="TX" style="whiteSpace=wrap;html=1;fontStyle=0;fontSize=14;rounded=1;" parent="1" vertex="1">
          <mxGeometry x="-190" y="849" width="40" height="20" as="geometry" />
        </mxCell>
        <mxCell id="PqdqEKUbh5YwWDGjOYME-92" value="GND" style="whiteSpace=wrap;html=1;fontStyle=0;fontSize=14;rounded=1;" parent="1" vertex="1">
          <mxGeometry x="-190" y="789" width="40" height="20" as="geometry" />
        </mxCell>
        <mxCell id="PqdqEKUbh5YwWDGjOYME-93" value="" style="endArrow=none;html=1;exitX=1;exitY=0.5;exitDx=0;exitDy=0;entryX=0;entryY=0.5;entryDx=0;entryDy=0;fontStyle=0;fontSize=14;" parent="1" source="PqdqEKUbh5YwWDGjOYME-84" target="PqdqEKUbh5YwWDGjOYME-92" edge="1">
          <mxGeometry width="50" height="50" relative="1" as="geometry">
            <mxPoint x="-190" y="869" as="sourcePoint" />
            <mxPoint x="-140" y="819" as="targetPoint" />
          </mxGeometry>
        </mxCell>
        <mxCell id="PqdqEKUbh5YwWDGjOYME-94" value="" style="endArrow=none;html=1;exitX=1;exitY=0.5;exitDx=0;exitDy=0;entryX=0;entryY=0.5;entryDx=0;entryDy=0;fontStyle=0;fontSize=14;" parent="1" source="PqdqEKUbh5YwWDGjOYME-86" target="PqdqEKUbh5YwWDGjOYME-91" edge="1">
          <mxGeometry width="50" height="50" relative="1" as="geometry">
            <mxPoint x="-190" y="869" as="sourcePoint" />
            <mxPoint x="-200" y="819" as="targetPoint" />
          </mxGeometry>
        </mxCell>
        <mxCell id="PqdqEKUbh5YwWDGjOYME-95" value="" style="endArrow=none;html=1;exitX=1;exitY=0.5;exitDx=0;exitDy=0;entryX=0;entryY=0.5;entryDx=0;entryDy=0;fontStyle=0;fontSize=14;" parent="1" source="PqdqEKUbh5YwWDGjOYME-87" target="PqdqEKUbh5YwWDGjOYME-90" edge="1">
          <mxGeometry width="50" height="50" relative="1" as="geometry">
            <mxPoint x="-190" y="869" as="sourcePoint" />
            <mxPoint x="-140" y="819" as="targetPoint" />
          </mxGeometry>
        </mxCell>
        <mxCell id="PqdqEKUbh5YwWDGjOYME-96" value="" style="endArrow=none;html=1;exitX=1;exitY=0.5;exitDx=0;exitDy=0;entryX=0;entryY=0.5;entryDx=0;entryDy=0;fontStyle=0;fontSize=14;" parent="1" source="PqdqEKUbh5YwWDGjOYME-85" target="PqdqEKUbh5YwWDGjOYME-89" edge="1">
          <mxGeometry width="50" height="50" relative="1" as="geometry">
            <mxPoint x="-190" y="869" as="sourcePoint" />
            <mxPoint x="-140" y="819" as="targetPoint" />
          </mxGeometry>
        </mxCell>
        <mxCell id="PqdqEKUbh5YwWDGjOYME-97" value="CAN_H" style="whiteSpace=wrap;html=1;fontStyle=0;fontSize=14;rounded=1;" parent="1" vertex="1">
          <mxGeometry x="-10" y="809" width="50" height="20" as="geometry" />
        </mxCell>
        <mxCell id="PqdqEKUbh5YwWDGjOYME-98" value="CAN_L" style="whiteSpace=wrap;html=1;fontStyle=0;fontSize=14;rounded=1;" parent="1" vertex="1">
          <mxGeometry x="-10" y="949" width="50" height="20" as="geometry" />
        </mxCell>
        <mxCell id="PqdqEKUbh5YwWDGjOYME-102" value="" style="endArrow=none;html=1;entryX=1;entryY=0.5;entryDx=0;entryDy=0;fontStyle=0;fontSize=14;" parent="1" target="PqdqEKUbh5YwWDGjOYME-97" edge="1">
          <mxGeometry width="50" height="50" relative="1" as="geometry">
            <mxPoint x="90" y="819" as="sourcePoint" />
            <mxPoint x="-40" y="539" as="targetPoint" />
          </mxGeometry>
        </mxCell>
        <mxCell id="PqdqEKUbh5YwWDGjOYME-104" value="" style="endArrow=oval;html=1;endFill=1;fontStyle=0;fontSize=14;" parent="1" edge="1">
          <mxGeometry width="50" height="50" relative="1" as="geometry">
            <mxPoint x="90" y="820" as="sourcePoint" />
            <mxPoint x="90" y="469" as="targetPoint" />
          </mxGeometry>
        </mxCell>
        <mxCell id="PqdqEKUbh5YwWDGjOYME-105" value="" style="endArrow=none;html=1;fontStyle=0;fontSize=14;" parent="1" edge="1">
          <mxGeometry width="50" height="50" relative="1" as="geometry">
            <mxPoint x="40" y="959" as="sourcePoint" />
            <mxPoint x="130" y="959" as="targetPoint" />
          </mxGeometry>
        </mxCell>
        <mxCell id="PqdqEKUbh5YwWDGjOYME-106" value="" style="endArrow=oval;html=1;endFill=1;fontStyle=0;fontSize=14;" parent="1" edge="1">
          <mxGeometry width="50" height="50" relative="1" as="geometry">
            <mxPoint x="130" y="960" as="sourcePoint" />
            <mxPoint x="130" y="609" as="targetPoint" />
          </mxGeometry>
        </mxCell>
        <mxCell id="PqdqEKUbh5YwWDGjOYME-109" value="&lt;span style=&quot;font-size: 14px;&quot;&gt;ELM327&lt;br style=&quot;font-size: 14px;&quot;&gt;OBDII&lt;/span&gt;" style="whiteSpace=wrap;html=1;gradientDirection=east;fontStyle=0;fontSize=14;rounded=1;" parent="1" vertex="1">
          <mxGeometry x="-150" y="99" width="140" height="250" as="geometry" />
        </mxCell>
        <mxCell id="PqdqEKUbh5YwWDGjOYME-111" value="J1&lt;br style=&quot;font-size: 14px;&quot;&gt;120Om" style="whiteSpace=wrap;html=1;gradientDirection=east;fontStyle=0;fontSize=14;rounded=1;" parent="1" vertex="1">
          <mxGeometry x="270" y="599" width="70" height="45" as="geometry" />
        </mxCell>
        <mxCell id="PqdqEKUbh5YwWDGjOYME-112" style="edgeStyle=orthogonalEdgeStyle;orthogonalLoop=1;jettySize=auto;html=1;exitX=0;exitY=0.5;exitDx=0;exitDy=0;entryX=1;entryY=0.5;entryDx=0;entryDy=0;endArrow=oval;endFill=1;startArrow=oval;startFill=1;fontStyle=0;fontSize=14;" parent="1" source="PqdqEKUbh5YwWDGjOYME-111" target="PqdqEKUbh5YwWDGjOYME-111" edge="1">
          <mxGeometry relative="1" as="geometry">
            <Array as="points">
              <mxPoint x="260" y="622" />
              <mxPoint x="250" y="622" />
              <mxPoint x="250" y="579" />
              <mxPoint x="360" y="579" />
              <mxPoint x="360" y="622" />
            </Array>
          </mxGeometry>
        </mxCell>
        <mxCell id="PqdqEKUbh5YwWDGjOYME-113" value="12V" style="whiteSpace=wrap;html=1;fontStyle=0;fontSize=14;rounded=1;" parent="1" vertex="1">
          <mxGeometry x="-190" y="159" width="40" height="20" as="geometry" />
        </mxCell>
        <mxCell id="PqdqEKUbh5YwWDGjOYME-114" value="GND" style="whiteSpace=wrap;html=1;fontStyle=0;fontSize=14;rounded=1;" parent="1" vertex="1">
          <mxGeometry x="-190" y="279" width="40" height="20" as="geometry" />
        </mxCell>
        <mxCell id="PqdqEKUbh5YwWDGjOYME-115" value="" style="endArrow=none;html=1;exitX=1;exitY=0.5;exitDx=0;exitDy=0;entryX=0;entryY=0.5;entryDx=0;entryDy=0;fontStyle=0;fontSize=14;rounded=0;" parent="1" source="PqdqEKUbh5YwWDGjOYME-34" target="PqdqEKUbh5YwWDGjOYME-113" edge="1">
          <mxGeometry width="50" height="50" relative="1" as="geometry">
            <mxPoint x="-40" y="299" as="sourcePoint" />
            <mxPoint x="10" y="249" as="targetPoint" />
            <Array as="points">
              <mxPoint x="-230" y="329" />
              <mxPoint x="-230" y="249" />
              <mxPoint x="-230" y="169" />
            </Array>
          </mxGeometry>
        </mxCell>
        <mxCell id="PqdqEKUbh5YwWDGjOYME-116" value="" style="endArrow=none;html=1;exitX=1;exitY=0.5;exitDx=0;exitDy=0;entryX=0;entryY=0.5;entryDx=0;entryDy=0;fontStyle=0;fontSize=14;rounded=0;" parent="1" source="PqdqEKUbh5YwWDGjOYME-35" target="PqdqEKUbh5YwWDGjOYME-114" edge="1">
          <mxGeometry width="50" height="50" relative="1" as="geometry">
            <mxPoint x="-60" y="389" as="sourcePoint" />
            <mxPoint x="-210" y="389" as="targetPoint" />
            <Array as="points">
              <mxPoint x="-210" y="389" />
              <mxPoint x="-210" y="339" />
              <mxPoint x="-210" y="289" />
              <mxPoint x="-190" y="289" />
            </Array>
          </mxGeometry>
        </mxCell>
        <mxCell id="PqdqEKUbh5YwWDGjOYME-117" value="CAN_L" style="whiteSpace=wrap;html=1;fontStyle=0;fontSize=14;rounded=1;" parent="1" vertex="1">
          <mxGeometry x="-10" y="159" width="50" height="20" as="geometry" />
        </mxCell>
        <mxCell id="PqdqEKUbh5YwWDGjOYME-120" value="" style="edgeStyle=orthogonalEdgeStyle;orthogonalLoop=1;jettySize=auto;html=1;startArrow=none;startFill=0;endArrow=oval;endFill=1;fontStyle=0;fontSize=14;rounded=0;" parent="1" source="PqdqEKUbh5YwWDGjOYME-118" edge="1">
          <mxGeometry relative="1" as="geometry">
            <mxPoint x="70" y="469" as="targetPoint" />
          </mxGeometry>
        </mxCell>
        <mxCell id="PqdqEKUbh5YwWDGjOYME-118" value="CAN_H" style="whiteSpace=wrap;html=1;fontStyle=0;fontSize=14;rounded=1;" parent="1" vertex="1">
          <mxGeometry x="-10" y="279" width="50" height="20" as="geometry" />
        </mxCell>
        <mxCell id="PqdqEKUbh5YwWDGjOYME-121" value="" style="endArrow=oval;html=1;exitX=1;exitY=0.5;exitDx=0;exitDy=0;endFill=1;fontStyle=0;fontSize=14;rounded=0;" parent="1" source="PqdqEKUbh5YwWDGjOYME-117" edge="1">
          <mxGeometry width="50" height="50" relative="1" as="geometry">
            <mxPoint x="10" y="459" as="sourcePoint" />
            <mxPoint x="110" y="609" as="targetPoint" />
            <Array as="points">
              <mxPoint x="110" y="169" />
              <mxPoint x="110" y="369" />
            </Array>
          </mxGeometry>
        </mxCell>
        <mxCell id="PqdqEKUbh5YwWDGjOYME-122" value="5V" style="whiteSpace=wrap;html=1;gradientDirection=east;fontStyle=0;fontSize=14;rounded=1;" parent="1" vertex="1">
          <mxGeometry x="250" y="319" width="50" height="30" as="geometry" />
        </mxCell>
        <mxCell id="PqdqEKUbh5YwWDGjOYME-123" value="GND" style="whiteSpace=wrap;html=1;gradientDirection=east;fontStyle=0;fontSize=14;rounded=1;" parent="1" vertex="1">
          <mxGeometry x="310" y="319" width="50" height="30" as="geometry" />
        </mxCell>
        <mxCell id="PqdqEKUbh5YwWDGjOYME-124" value="10" style="whiteSpace=wrap;html=1;gradientDirection=east;fontStyle=0;fontSize=14;rounded=1;" parent="1" vertex="1">
          <mxGeometry x="370" y="319" width="50" height="30" as="geometry" />
        </mxCell>
        <mxCell id="PqdqEKUbh5YwWDGjOYME-125" value="11" style="whiteSpace=wrap;html=1;gradientDirection=east;fontStyle=0;fontSize=14;rounded=1;" parent="1" vertex="1">
          <mxGeometry x="430" y="319" width="50" height="30" as="geometry" />
        </mxCell>
        <mxCell id="PqdqEKUbh5YwWDGjOYME-126" value="12" style="whiteSpace=wrap;html=1;gradientDirection=east;fontStyle=0;fontSize=14;rounded=1;" parent="1" vertex="1">
          <mxGeometry x="490" y="319" width="50" height="30" as="geometry" />
        </mxCell>
        <mxCell id="PqdqEKUbh5YwWDGjOYME-127" value="13" style="whiteSpace=wrap;html=1;gradientDirection=east;fontStyle=0;fontSize=14;rounded=1;" parent="1" vertex="1">
          <mxGeometry x="550" y="319" width="50" height="30" as="geometry" />
        </mxCell>
        <mxCell id="PqdqEKUbh5YwWDGjOYME-128" value="2" style="whiteSpace=wrap;html=1;gradientDirection=east;fontStyle=0;fontSize=14;rounded=1;" parent="1" vertex="1">
          <mxGeometry x="610" y="319" width="50" height="30" as="geometry" />
        </mxCell>
        <mxCell id="PqdqEKUbh5YwWDGjOYME-129" value="5V" style="whiteSpace=wrap;html=1;gradientDirection=east;fontStyle=0;fontSize=14;rounded=1;" parent="1" vertex="1">
          <mxGeometry x="250" y="319" width="50" height="30" as="geometry" />
        </mxCell>
        <mxCell id="PqdqEKUbh5YwWDGjOYME-130" value="GND" style="whiteSpace=wrap;html=1;gradientDirection=east;fontStyle=0;fontSize=14;rounded=1;" parent="1" vertex="1">
          <mxGeometry x="310" y="319" width="50" height="30" as="geometry" />
        </mxCell>
        <mxCell id="PqdqEKUbh5YwWDGjOYME-131" value="10" style="whiteSpace=wrap;html=1;gradientDirection=east;fontStyle=0;fontSize=14;rounded=1;" parent="1" vertex="1">
          <mxGeometry x="370" y="319" width="50" height="30" as="geometry" />
        </mxCell>
        <mxCell id="PqdqEKUbh5YwWDGjOYME-132" value="11" style="whiteSpace=wrap;html=1;gradientDirection=east;fontStyle=0;fontSize=14;rounded=1;" parent="1" vertex="1">
          <mxGeometry x="430" y="319" width="50" height="30" as="geometry" />
        </mxCell>
        <mxCell id="PqdqEKUbh5YwWDGjOYME-133" value="12" style="whiteSpace=wrap;html=1;gradientDirection=east;fontStyle=0;fontSize=14;rounded=1;" parent="1" vertex="1">
          <mxGeometry x="490" y="319" width="50" height="30" as="geometry" />
        </mxCell>
        <mxCell id="PqdqEKUbh5YwWDGjOYME-134" value="5V" style="whiteSpace=wrap;html=1;gradientDirection=east;fontStyle=0;fontSize=14;rounded=1;" parent="1" vertex="1">
          <mxGeometry x="250" y="319" width="50" height="30" as="geometry" />
        </mxCell>
        <mxCell id="PqdqEKUbh5YwWDGjOYME-135" value="GND" style="whiteSpace=wrap;html=1;gradientDirection=east;fontStyle=0;fontSize=14;rounded=1;" parent="1" vertex="1">
          <mxGeometry x="310" y="319" width="50" height="30" as="geometry" />
        </mxCell>
        <mxCell id="PqdqEKUbh5YwWDGjOYME-136" value="10" style="whiteSpace=wrap;html=1;gradientDirection=east;fontStyle=0;fontSize=14;rounded=1;" parent="1" vertex="1">
          <mxGeometry x="370" y="319" width="50" height="30" as="geometry" />
        </mxCell>
        <mxCell id="PqdqEKUbh5YwWDGjOYME-137" value="11" style="whiteSpace=wrap;html=1;gradientDirection=east;fontStyle=0;fontSize=14;rounded=1;" parent="1" vertex="1">
          <mxGeometry x="430" y="319" width="50" height="30" as="geometry" />
        </mxCell>
        <mxCell id="PqdqEKUbh5YwWDGjOYME-138" value="12" style="whiteSpace=wrap;html=1;gradientDirection=east;fontStyle=0;fontSize=14;rounded=1;" parent="1" vertex="1">
          <mxGeometry x="490" y="319" width="50" height="30" as="geometry" />
        </mxCell>
        <mxCell id="PqdqEKUbh5YwWDGjOYME-139" value="5V" style="whiteSpace=wrap;html=1;gradientDirection=east;fontStyle=0;fontSize=14;rounded=1;" parent="1" vertex="1">
          <mxGeometry x="250" y="319" width="50" height="30" as="geometry" />
        </mxCell>
        <mxCell id="PqdqEKUbh5YwWDGjOYME-140" value="GND" style="whiteSpace=wrap;html=1;gradientDirection=east;fontStyle=0;fontSize=14;rounded=1;" parent="1" vertex="1">
          <mxGeometry x="310" y="319" width="50" height="30" as="geometry" />
        </mxCell>
        <mxCell id="PqdqEKUbh5YwWDGjOYME-141" value="10" style="whiteSpace=wrap;html=1;gradientDirection=east;fontStyle=0;fontSize=14;rounded=1;" parent="1" vertex="1">
          <mxGeometry x="370" y="319" width="50" height="30" as="geometry" />
        </mxCell>
        <mxCell id="PqdqEKUbh5YwWDGjOYME-142" value="SCK" style="whiteSpace=wrap;html=1;gradientDirection=east;fontStyle=0;fontSize=14;rounded=1;" parent="1" vertex="1">
          <mxGeometry x="550" y="389" width="50" height="30" as="geometry" />
        </mxCell>
        <mxCell id="PqdqEKUbh5YwWDGjOYME-143" value="INT" style="whiteSpace=wrap;html=1;gradientDirection=east;fontStyle=0;fontSize=14;rounded=1;" parent="1" vertex="1">
          <mxGeometry x="610" y="389" width="50" height="30" as="geometry" />
        </mxCell>
        <mxCell id="PqdqEKUbh5YwWDGjOYME-144" value="SI" style="whiteSpace=wrap;html=1;gradientDirection=east;fontStyle=0;fontSize=14;rounded=1;" parent="1" vertex="1">
          <mxGeometry x="430" y="389" width="50" height="30" as="geometry" />
        </mxCell>
        <mxCell id="PqdqEKUbh5YwWDGjOYME-145" value="SO" style="whiteSpace=wrap;html=1;gradientDirection=east;fontStyle=0;fontSize=14;rounded=1;" parent="1" vertex="1">
          <mxGeometry x="490" y="389" width="50" height="30" as="geometry" />
        </mxCell>
        <mxCell id="PqdqEKUbh5YwWDGjOYME-146" value="VCC" style="whiteSpace=wrap;html=1;gradientDirection=east;fontStyle=0;fontSize=14;rounded=1;" parent="1" vertex="1">
          <mxGeometry x="250" y="389" width="50" height="30" as="geometry" />
        </mxCell>
        <mxCell id="PqdqEKUbh5YwWDGjOYME-147" value="GND" style="whiteSpace=wrap;html=1;gradientDirection=east;fontStyle=0;fontSize=14;rounded=1;" parent="1" vertex="1">
          <mxGeometry x="310" y="389" width="50" height="30" as="geometry" />
        </mxCell>
        <mxCell id="PqdqEKUbh5YwWDGjOYME-148" value="CS" style="whiteSpace=wrap;html=1;gradientDirection=east;fontStyle=0;fontSize=14;rounded=1;" parent="1" vertex="1">
          <mxGeometry x="370" y="389" width="50" height="30" as="geometry" />
        </mxCell>
        <mxCell id="PqdqEKUbh5YwWDGjOYME-149" value="" style="endArrow=none;html=1;exitX=0.5;exitY=0;exitDx=0;exitDy=0;entryX=0.5;entryY=1;entryDx=0;entryDy=0;fontSize=14;fontStyle=0" parent="1" source="PqdqEKUbh5YwWDGjOYME-146" target="PqdqEKUbh5YwWDGjOYME-139" edge="1">
          <mxGeometry width="50" height="50" relative="1" as="geometry">
            <mxPoint x="280" y="279" as="sourcePoint" />
            <mxPoint x="330" y="229" as="targetPoint" />
          </mxGeometry>
        </mxCell>
        <mxCell id="PqdqEKUbh5YwWDGjOYME-150" value="" style="endArrow=none;html=1;entryX=0.5;entryY=1;entryDx=0;entryDy=0;fontSize=14;fontStyle=0" parent="1" source="PqdqEKUbh5YwWDGjOYME-147" target="PqdqEKUbh5YwWDGjOYME-140" edge="1">
          <mxGeometry width="50" height="50" relative="1" as="geometry">
            <mxPoint x="285" y="409" as="sourcePoint" />
            <mxPoint x="285" y="359" as="targetPoint" />
          </mxGeometry>
        </mxCell>
        <mxCell id="PqdqEKUbh5YwWDGjOYME-151" value="" style="endArrow=none;html=1;entryX=0.5;entryY=1;entryDx=0;entryDy=0;exitX=0.5;exitY=0;exitDx=0;exitDy=0;fontSize=14;fontStyle=0" parent="1" source="PqdqEKUbh5YwWDGjOYME-148" edge="1">
          <mxGeometry width="50" height="50" relative="1" as="geometry">
            <mxPoint x="395" y="379" as="sourcePoint" />
            <mxPoint x="394.86" y="349" as="targetPoint" />
          </mxGeometry>
        </mxCell>
        <mxCell id="PqdqEKUbh5YwWDGjOYME-152" value="" style="endArrow=none;html=1;entryX=0.5;entryY=1;entryDx=0;entryDy=0;exitX=0.5;exitY=0;exitDx=0;exitDy=0;fontSize=14;fontStyle=0" parent="1" source="PqdqEKUbh5YwWDGjOYME-144" edge="1">
          <mxGeometry width="50" height="50" relative="1" as="geometry">
            <mxPoint x="455" y="379" as="sourcePoint" />
            <mxPoint x="454.86" y="349" as="targetPoint" />
          </mxGeometry>
        </mxCell>
        <mxCell id="PqdqEKUbh5YwWDGjOYME-153" value="" style="endArrow=none;html=1;entryX=0.5;entryY=1;entryDx=0;entryDy=0;exitX=0.5;exitY=0;exitDx=0;exitDy=0;fontSize=14;fontStyle=0" parent="1" source="PqdqEKUbh5YwWDGjOYME-145" edge="1">
          <mxGeometry width="50" height="50" relative="1" as="geometry">
            <mxPoint x="515" y="379" as="sourcePoint" />
            <mxPoint x="514.86" y="349" as="targetPoint" />
          </mxGeometry>
        </mxCell>
        <mxCell id="PqdqEKUbh5YwWDGjOYME-154" value="" style="endArrow=none;html=1;entryX=0.5;entryY=1;entryDx=0;entryDy=0;exitX=0.5;exitY=0;exitDx=0;exitDy=0;fontSize=14;fontStyle=0" parent="1" source="PqdqEKUbh5YwWDGjOYME-142" edge="1">
          <mxGeometry width="50" height="50" relative="1" as="geometry">
            <mxPoint x="575" y="379" as="sourcePoint" />
            <mxPoint x="574.86" y="349" as="targetPoint" />
          </mxGeometry>
        </mxCell>
        <mxCell id="PqdqEKUbh5YwWDGjOYME-155" value="" style="endArrow=none;html=1;entryX=0.5;entryY=1;entryDx=0;entryDy=0;exitX=0.5;exitY=0;exitDx=0;exitDy=0;fontSize=14;fontStyle=0" parent="1" source="PqdqEKUbh5YwWDGjOYME-143" edge="1">
          <mxGeometry width="50" height="50" relative="1" as="geometry">
            <mxPoint x="635" y="379" as="sourcePoint" />
            <mxPoint x="634.86" y="349" as="targetPoint" />
          </mxGeometry>
        </mxCell>
      </root>
    </mxGraphModel>
  </diagram>
</mxfile>
